# xmcd CD database file
#
# Track frame offsets:
#	150
#	26784
#	52512
#	75624
#	99044
#
# Disc length: 1603 seconds
#
# Revision: 0
# Processed by: cddbd v1.5.2PL0 Copyright (c) Steve Scherf et al.
# Submitted via: CDex 1.51
#
DISCID=27064105
DTITLE=Sylwester Ostrowski - Thousand of Million Times
DYEAR=2012
DGENRE=Jazz
TTITLE0=Manha De Carnaval
TTITLE1=Lonesome Lover
TTITLE2=Avila and Tecquila
TTITLE3=Sock Cha
TTITLE4=Violet Flame
EXTD=YEAR: 2012
EXTT0=
EXTT1=
EXTT2=
EXTT3=
EXTT4=
PLAYORDER=
